<?xml version="1.0" encoding="utf-8"?>
<!-- Generator: Adobe Illustrator 15.0.0, SVG Export Plug-In . SVG Version: 6.00 Build 0)  -->
<!DOCTYPE svg PUBLIC "-//W3C//DTD SVG 1.1//EN" "http://www.w3.org/Graphics/SVG/1.1/DTD/svg11.dtd">
<svg version="1.1" id="Capa_1" xmlns="http://www.w3.org/2000/svg" xmlns:xlink="http://www.w3.org/1999/xlink" x="0px" y="0px"
	 width="38.381px" height="35.875px" viewBox="380.81 282.062 38.381 35.875" enable-background="new 380.81 282.062 38.381 35.875"
	 xml:space="preserve">
<g>
	<g>
		<path fill="#FFFFFF" d="M402.591,296.156v-9.759c0-0.271-0.22-0.492-0.491-0.492h-6.277c-0.173,0-0.333-0.091-0.422-0.238
			l-1.635-2.727c-0.09-0.148-0.25-0.238-0.422-0.238h-8.84c-0.271,0-0.492,0.22-0.492,0.492v12.962H402.591z"/>
	</g>
	<g>
		<path fill="#7FACFA" d="M415.553,285.906h-6.276c-0.174,0-0.333-0.092-0.423-0.239l1.425,10.49h5.766v-9.761
			C416.044,286.126,415.824,285.906,415.553,285.906L415.553,285.906z"/>
	</g>
	<g>
		<path fill="#A4C2F7" d="M414.123,296.156v-9.759c0-0.271-0.221-0.492-0.492-0.492h-17.447c-0.173,0-0.333-0.091-0.421-0.238
			l-1.635-2.727c-0.089-0.148-0.249-0.238-0.422-0.238h-7.279c-0.271,0-0.492,0.22-0.492,0.492v12.962H414.123z"/>
	</g>
	<g>
		<rect x="386.575" y="291.671" fill="#7FACFA" width="26.907" height="4.485"/>
	</g>
	<g>
		<g>
			<defs>
				<rect id="SVGID_1_" x="386.575" y="291.671" width="24.985" height="4.485"/>
			</defs>
			<clipPath id="SVGID_2_">
				<use xlink:href="#SVGID_1_"  overflow="visible"/>
			</clipPath>
			<polygon clip-path="url(#SVGID_2_)" fill="#D4E1F4" points="411.56,291.95 386.575,292.755 386.575,291.671 411.56,291.671 			
				"/>
			<polygon clip-path="url(#SVGID_2_)" fill="#D4E1F4" points="411.56,292.294 386.575,293.099 386.575,292.755 411.56,291.95 			
				"/>
			
				<rect x="386.568" y="292.697" transform="matrix(0.9995 -0.0322 0.0322 0.9995 -9.2152 12.9978)" clip-path="url(#SVGID_2_)" fill="#D4E1F4" width="24.998" height="0"/>
			
				<rect x="386.568" y="292.697" transform="matrix(0.9995 -0.0322 0.0322 0.9995 -9.2152 12.9978)" clip-path="url(#SVGID_2_)" fill="#D5E2F4" width="24.998" height="0"/>
			
				<rect x="386.568" y="292.696" transform="matrix(0.9995 -0.0322 0.0322 0.9995 -9.2261 13.0137)" clip-path="url(#SVGID_2_)" fill="#D6E2F4" width="24.998" height="0.001"/>
			
				<rect x="386.568" y="292.697" transform="matrix(0.9995 -0.0322 0.0322 0.9995 -9.2261 13.0137)" clip-path="url(#SVGID_2_)" fill="#D8E3F4" width="24.998" height="0"/>
			
				<rect x="386.568" y="292.698" transform="matrix(0.9995 -0.0322 0.0322 0.9995 -9.2043 12.9818)" clip-path="url(#SVGID_2_)" fill="#D9E3F4" width="24.998" height="0"/>
			
				<rect x="386.568" y="292.698" transform="matrix(0.9995 -0.0322 0.0322 0.9995 -9.2043 12.9818)" clip-path="url(#SVGID_2_)" fill="#DAE4F4" width="24.998" height="0"/>
			
				<rect x="386.568" y="292.697" transform="matrix(0.9995 -0.0322 0.0322 0.9995 -9.2261 13.0137)" clip-path="url(#SVGID_2_)" fill="#DAE4F4" width="24.998" height="0.002"/>
			
				<rect x="386.568" y="292.699" transform="matrix(0.9995 -0.0322 0.0322 0.9995 -9.2153 12.9978)" clip-path="url(#SVGID_2_)" fill="#DBE4F4" width="24.998" height="0"/>
			
				<rect x="386.568" y="292.699" transform="matrix(0.9995 -0.0322 0.0322 0.9995 -9.2153 12.9978)" clip-path="url(#SVGID_2_)" fill="#DCE5F4" width="24.998" height="0"/>
			
				<rect x="386.568" y="292.699" transform="matrix(0.9995 -0.0322 0.0322 0.9995 -9.2153 12.9978)" clip-path="url(#SVGID_2_)" fill="#DDE5F4" width="24.998" height="0.001"/>
			
				<rect x="386.568" y="292.7" transform="matrix(0.9995 -0.0322 0.0322 0.9995 -9.2153 12.9978)" clip-path="url(#SVGID_2_)" fill="#DEE6F4" width="24.998" height="0"/>
			
				<rect x="386.568" y="292.7" transform="matrix(0.9995 -0.0322 0.0322 0.9995 -9.2262 13.0137)" clip-path="url(#SVGID_2_)" fill="#DFE6F4" width="24.998" height="0.001"/>
			
				<rect x="386.568" y="292.701" transform="matrix(0.9995 -0.0322 0.0322 0.9995 -9.2153 12.9978)" clip-path="url(#SVGID_2_)" fill="#E0E7F4" width="24.998" height="0"/>
			
				<rect x="386.568" y="292.701" transform="matrix(0.9995 -0.0322 0.0322 0.9995 -9.2263 13.0137)" clip-path="url(#SVGID_2_)" fill="#E1E7F4" width="24.998" height="0.001"/>
			
				<rect x="386.568" y="292.703" transform="matrix(0.9995 -0.0322 0.0322 0.9995 -9.2044 12.9818)" clip-path="url(#SVGID_2_)" fill="#E3E8F4" width="24.998" height="0"/>
			
				<rect x="386.568" y="292.703" transform="matrix(0.9995 -0.0322 0.0322 0.9995 -9.2044 12.9818)" clip-path="url(#SVGID_2_)" fill="#E4E8F4" width="24.998" height="0"/>
			
				<rect x="386.568" y="292.702" transform="matrix(0.9995 -0.0322 0.0322 0.9995 -9.2154 12.9978)" clip-path="url(#SVGID_2_)" fill="#E5E8F4" width="24.998" height="0.002"/>
			
				<rect x="386.568" y="292.704" transform="matrix(0.9995 -0.0322 0.0322 0.9995 -9.2154 12.9978)" clip-path="url(#SVGID_2_)" fill="#E6E9F4" width="24.998" height="0"/>
			
				<rect x="386.568" y="292.704" transform="matrix(0.9995 -0.0322 0.0322 0.9995 -9.2154 12.9978)" clip-path="url(#SVGID_2_)" fill="#E7E9F4" width="24.998" height="0.001"/>
			
				<rect x="386.568" y="292.705" transform="matrix(0.9995 -0.0322 0.0322 0.9995 -9.2155 12.9978)" clip-path="url(#SVGID_2_)" fill="#E8EAF4" width="24.998" height="0"/>
			
				<rect x="386.568" y="292.706" transform="matrix(0.9995 -0.0322 0.0322 0.9995 -9.2046 12.9818)" clip-path="url(#SVGID_2_)" fill="#E9EAF4" width="24.998" height="0.001"/>
			
				<rect x="386.568" y="292.707" transform="matrix(0.9995 -0.0322 0.0322 0.9995 -9.2046 12.9818)" clip-path="url(#SVGID_2_)" fill="#EAEBF4" width="24.998" height="0"/>
			
				<rect x="386.568" y="292.707" transform="matrix(0.9995 -0.0322 0.0322 0.9995 -9.2046 12.9818)" clip-path="url(#SVGID_2_)" fill="#EBEBF4" width="24.998" height="0"/>
			
				<rect x="386.568" y="292.707" transform="matrix(0.9995 -0.0322 0.0322 0.9995 -9.2046 12.9818)" clip-path="url(#SVGID_2_)" fill="#EBEBF4" width="24.998" height="0.001"/>
			
				<rect x="386.568" y="292.707" transform="matrix(0.9995 -0.0322 0.0322 0.9995 -9.2155 12.9978)" clip-path="url(#SVGID_2_)" fill="#ECECF4" width="24.998" height="0.002"/>
			
				<rect x="386.568" y="292.709" transform="matrix(0.9995 -0.0322 0.0322 0.9995 -9.2156 12.9978)" clip-path="url(#SVGID_2_)" fill="#EDECF4" width="24.998" height="0.001"/>
			
				<rect x="386.568" y="292.71" transform="matrix(0.9995 -0.0322 0.0322 0.9995 -9.2265 13.0137)" clip-path="url(#SVGID_2_)" fill="#EEEDF4" width="24.998" height="0.001"/>
			
				<rect x="386.568" y="292.712" transform="matrix(0.9995 -0.0322 0.0322 0.9995 -9.2047 12.9818)" clip-path="url(#SVGID_2_)" fill="#EFEDF4" width="24.998" height="0"/>
			
				<rect x="386.568" y="292.711" transform="matrix(0.9995 -0.0322 0.0322 0.9995 -9.2157 12.9978)" clip-path="url(#SVGID_2_)" fill="#F1EEF4" width="24.998" height="0.002"/>
			
				<rect x="386.568" y="292.713" transform="matrix(0.9995 -0.0322 0.0322 0.9995 -9.2157 12.9978)" clip-path="url(#SVGID_2_)" fill="#F2EFF4" width="24.998" height="0.001"/>
			
				<rect x="386.568" y="292.714" transform="matrix(0.9995 -0.0322 0.0322 0.9995 -9.2158 12.9978)" clip-path="url(#SVGID_2_)" fill="#F3EFF4" width="24.998" height="0.001"/>
			
				<rect x="386.568" y="292.715" transform="matrix(0.9995 -0.0322 0.0322 0.9995 -9.2158 12.9978)" clip-path="url(#SVGID_2_)" fill="#F4F0F4" width="24.998" height="0"/>
			
				<rect x="386.568" y="292.716" transform="matrix(0.9995 -0.0322 0.0322 0.9995 -9.2049 12.9819)" clip-path="url(#SVGID_2_)" fill="#F5F0F4" width="24.998" height="0.001"/>
			
				<rect x="386.568" y="292.716" transform="matrix(0.9995 -0.0322 0.0322 0.9995 -9.2158 12.9978)" clip-path="url(#SVGID_2_)" fill="#F6F1F4" width="24.998" height="0.002"/>
			
				<rect x="386.568" y="292.718" transform="matrix(0.9995 -0.0322 0.0322 0.9995 -9.2268 13.0137)" clip-path="url(#SVGID_2_)" fill="#F6F1F4" width="24.998" height="0.002"/>
			
				<rect x="386.568" y="292.719" transform="matrix(0.9995 -0.0322 0.0322 0.9995 -9.2269 13.0137)" clip-path="url(#SVGID_2_)" fill="#F7F2F4" width="24.998" height="0.003"/>
			
				<rect x="386.568" y="292.722" transform="matrix(0.9995 -0.0322 0.0322 0.9995 -9.227 13.0137)" clip-path="url(#SVGID_2_)" fill="#F8F2F4" width="24.998" height="0.001"/>
			
				<rect x="386.568" y="292.723" transform="matrix(0.9995 -0.0322 0.0322 0.9995 -9.227 13.0137)" clip-path="url(#SVGID_2_)" fill="#FAF3F4" width="24.998" height="0.002"/>
			
				<rect x="386.568" y="292.726" transform="matrix(0.9995 -0.0322 0.0322 0.9995 -9.2162 12.9978)" clip-path="url(#SVGID_2_)" fill="#FBF3F4" width="24.998" height="0.002"/>
			
				<rect x="386.568" y="292.727" transform="matrix(0.9995 -0.0322 0.0322 0.9995 -9.2271 13.0137)" clip-path="url(#SVGID_2_)" fill="#FCF4F4" width="24.998" height="0.002"/>
			
				<rect x="386.568" y="292.729" transform="matrix(0.9995 -0.0322 0.0322 0.9995 -9.2272 13.0137)" clip-path="url(#SVGID_2_)" fill="#FDF4F4" width="24.998" height="0.003"/>
			
				<rect x="386.568" y="292.733" transform="matrix(0.9995 -0.0322 0.0322 0.9995 -9.2166 12.9978)" clip-path="url(#SVGID_2_)" fill="#FDF4F4" width="24.998" height="0.02"/>
			
				<rect x="386.568" y="292.752" transform="matrix(0.9995 -0.0322 0.0322 0.9995 -9.2282 13.0138)" clip-path="url(#SVGID_2_)" fill="#FFF5F4" width="24.998" height="0.021"/>
			<polygon clip-path="url(#SVGID_2_)" fill="#FFF5F4" points="411.56,293.351 386.575,294.155 386.575,293.175 411.56,292.369 			
				"/>
			<polygon clip-path="url(#SVGID_2_)" fill="#FFF5F4" points="411.56,293.512 386.575,294.317 386.575,294.155 411.56,293.351 			
				"/>
			
				<rect x="386.568" y="293.914" transform="matrix(-0.9995 0.0322 -0.0322 -0.9995 807.3887 574.8302)" clip-path="url(#SVGID_2_)" fill="#FFF5F4" width="24.998" height="0"/>
			
				<rect x="386.568" y="293.914" transform="matrix(-0.9995 0.0322 -0.0322 -0.9995 807.3887 574.8302)" clip-path="url(#SVGID_2_)" fill="#FEF4F4" width="24.998" height="0"/>
			
				<rect x="386.568" y="293.914" transform="matrix(-0.9995 0.0322 -0.0322 -0.9995 807.3887 574.8302)" clip-path="url(#SVGID_2_)" fill="#FDF4F4" width="24.998" height="0"/>
			
				<rect x="386.568" y="293.914" transform="matrix(-0.9995 0.0322 -0.0322 -0.9995 807.3887 574.8302)" clip-path="url(#SVGID_2_)" fill="#FBF3F4" width="24.998" height="0"/>
			
				<rect x="386.568" y="293.914" transform="matrix(-0.9995 0.0322 -0.0322 -0.9995 807.3887 574.8302)" clip-path="url(#SVGID_2_)" fill="#FAF3F4" width="24.998" height="0"/>
			
				<rect x="386.568" y="293.914" transform="matrix(-0.9995 0.0322 -0.0322 -0.9995 807.3887 574.8302)" clip-path="url(#SVGID_2_)" fill="#F9F2F4" width="24.998" height="0"/>
			
				<rect x="386.568" y="293.914" transform="matrix(0.9995 -0.0322 0.0322 0.9995 -9.2544 12.9984)" clip-path="url(#SVGID_2_)" fill="#F9F2F4" width="24.998" height="0"/>
			
				<rect x="386.568" y="293.914" transform="matrix(0.9995 -0.0322 0.0322 0.9995 -9.2544 12.9984)" clip-path="url(#SVGID_2_)" fill="#F8F2F4" width="24.998" height="0"/>
			
				<rect x="386.568" y="293.914" transform="matrix(0.9995 -0.0322 0.0322 0.9995 -9.2544 12.9984)" clip-path="url(#SVGID_2_)" fill="#F7F1F4" width="24.998" height="0"/>
			
				<rect x="386.568" y="293.914" transform="matrix(0.9995 -0.0322 0.0322 0.9995 -9.2544 12.9984)" clip-path="url(#SVGID_2_)" fill="#F6F1F4" width="24.998" height="0"/>
			
				<rect x="386.568" y="293.914" transform="matrix(0.9995 -0.0322 0.0322 0.9995 -9.2544 12.9984)" clip-path="url(#SVGID_2_)" fill="#F5F0F4" width="24.998" height="0"/>
			
				<rect x="386.568" y="293.914" transform="matrix(0.9995 -0.0322 0.0322 0.9995 -9.2544 12.9984)" clip-path="url(#SVGID_2_)" fill="#F4F0F4" width="24.998" height="0"/>
			
				<rect x="386.568" y="293.914" transform="matrix(0.9995 -0.0322 0.0322 0.9995 -9.2654 13.0144)" clip-path="url(#SVGID_2_)" fill="#F3EFF4" width="24.998" height="0.001"/>
			
				<rect x="386.568" y="293.915" transform="matrix(0.9995 -0.0322 0.0322 0.9995 -9.2654 13.0144)" clip-path="url(#SVGID_2_)" fill="#F2EFF4" width="24.998" height="0"/>
			
				<rect x="386.568" y="293.915" transform="matrix(0.9995 -0.0322 0.0322 0.9995 -9.2654 13.0144)" clip-path="url(#SVGID_2_)" fill="#F1EFF4" width="24.998" height="0"/>
			
				<rect x="386.568" y="293.915" transform="matrix(0.9995 -0.0322 0.0322 0.9995 -9.2654 13.0144)" clip-path="url(#SVGID_2_)" fill="#EFEEF4" width="24.998" height="0"/>
			
				<rect x="386.568" y="293.915" transform="matrix(0.9995 -0.0322 0.0322 0.9995 -9.2654 13.0144)" clip-path="url(#SVGID_2_)" fill="#EEEEF4" width="24.998" height="0"/>
			
				<rect x="386.568" y="293.916" transform="matrix(0.9995 -0.0322 0.0322 0.9995 -9.2434 12.9825)" clip-path="url(#SVGID_2_)" fill="#EDEDF4" width="24.998" height="0"/>
			
				<rect x="386.568" y="293.916" transform="matrix(0.9995 -0.0322 0.0322 0.9995 -9.2434 12.9825)" clip-path="url(#SVGID_2_)" fill="#ECEDF4" width="24.998" height="0"/>
			
				<rect x="386.568" y="293.916" transform="matrix(0.9995 -0.0322 0.0322 0.9995 -9.2434 12.9825)" clip-path="url(#SVGID_2_)" fill="#EBECF4" width="24.998" height="0"/>
			
				<rect x="386.568" y="293.916" transform="matrix(0.9995 -0.0322 0.0322 0.9995 -9.2434 12.9825)" clip-path="url(#SVGID_2_)" fill="#EAECF4" width="24.998" height="0"/>
			
				<rect x="386.568" y="293.916" transform="matrix(0.9995 -0.0322 0.0322 0.9995 -9.2434 12.9825)" clip-path="url(#SVGID_2_)" fill="#E9EBF4" width="24.998" height="0"/>
			
				<rect x="386.568" y="293.916" transform="matrix(0.9995 -0.0322 0.0322 0.9995 -9.2434 12.9825)" clip-path="url(#SVGID_2_)" fill="#E8EBF4" width="24.998" height="0"/>
			
				<rect x="386.568" y="293.915" transform="matrix(0.9995 -0.0322 0.0322 0.9995 -9.2654 13.0144)" clip-path="url(#SVGID_2_)" fill="#E8EBF4" width="24.998" height="0.002"/>
			
				<rect x="386.568" y="293.917" transform="matrix(0.9995 -0.0322 0.0322 0.9995 -9.2654 13.0144)" clip-path="url(#SVGID_2_)" fill="#E7EAF4" width="24.998" height="0"/>
			
				<rect x="386.568" y="293.917" transform="matrix(0.9995 -0.0322 0.0322 0.9995 -9.2545 12.9984)" clip-path="url(#SVGID_2_)" fill="#E6EAF4" width="24.998" height="0"/>
			
				<rect x="386.568" y="293.917" transform="matrix(0.9995 -0.0322 0.0322 0.9995 -9.2545 12.9984)" clip-path="url(#SVGID_2_)" fill="#E5E9F4" width="24.998" height="0"/>
			
				<rect x="386.568" y="293.917" transform="matrix(0.9995 -0.0322 0.0322 0.9995 -9.2545 12.9984)" clip-path="url(#SVGID_2_)" fill="#E4E9F4" width="24.998" height="0"/>
			
				<rect x="386.568" y="293.917" transform="matrix(0.9995 -0.0322 0.0322 0.9995 -9.2654 13.0144)" clip-path="url(#SVGID_2_)" fill="#E3E8F4" width="24.998" height="0.001"/>
			
				<rect x="386.568" y="293.918" transform="matrix(0.9995 -0.0322 0.0322 0.9995 -9.2654 13.0144)" clip-path="url(#SVGID_2_)" fill="#E1E7F4" width="24.998" height="0"/>
			
				<rect x="386.568" y="293.918" transform="matrix(0.9995 -0.0322 0.0322 0.9995 -9.2545 12.9984)" clip-path="url(#SVGID_2_)" fill="#E0E7F4" width="24.998" height="0"/>
			
				<rect x="386.568" y="293.918" transform="matrix(0.9995 -0.0322 0.0322 0.9995 -9.2545 12.9984)" clip-path="url(#SVGID_2_)" fill="#DFE6F4" width="24.998" height="0"/>
			
				<rect x="386.568" y="293.918" transform="matrix(0.9995 -0.0322 0.0322 0.9995 -9.2545 12.9984)" clip-path="url(#SVGID_2_)" fill="#DEE6F4" width="24.998" height="0"/>
			
				<rect x="386.568" y="293.918" transform="matrix(0.9995 -0.0322 0.0322 0.9995 -9.2545 12.9984)" clip-path="url(#SVGID_2_)" fill="#DDE5F4" width="24.998" height="0.001"/>
			
				<rect x="386.568" y="293.919" transform="matrix(0.9995 -0.0322 0.0322 0.9995 -9.2545 12.9984)" clip-path="url(#SVGID_2_)" fill="#DDE5F4" width="24.998" height="0"/>
			
				<rect x="386.568" y="293.919" transform="matrix(0.9995 -0.0322 0.0322 0.9995 -9.2545 12.9984)" clip-path="url(#SVGID_2_)" fill="#DCE5F4" width="24.998" height="0"/>
			
				<rect x="386.568" y="293.92" transform="matrix(0.9995 -0.0322 0.0322 0.9995 -9.2436 12.9825)" clip-path="url(#SVGID_2_)" fill="#DBE4F4" width="24.998" height="0.001"/>
			
				<rect x="386.568" y="293.921" transform="matrix(0.9995 -0.0322 0.0322 0.9995 -9.2436 12.9825)" clip-path="url(#SVGID_2_)" fill="#DAE4F4" width="24.998" height="0"/>
			
				<rect x="386.568" y="293.921" transform="matrix(0.9995 -0.0322 0.0322 0.9995 -9.2436 12.9825)" clip-path="url(#SVGID_2_)" fill="#D8E3F4" width="24.998" height="0"/>
			
				<rect x="386.568" y="293.92" transform="matrix(0.9995 -0.0322 0.0322 0.9995 -9.2546 12.9984)" clip-path="url(#SVGID_2_)" fill="#D7E3F4" width="24.998" height="0.002"/>
			
				<rect x="386.568" y="293.922" transform="matrix(0.9995 -0.0322 0.0322 0.9995 -9.2546 12.9984)" clip-path="url(#SVGID_2_)" fill="#D6E2F4" width="24.998" height="0"/>
			
				<rect x="386.568" y="293.923" transform="matrix(0.9995 -0.0322 0.0322 0.9995 -9.2437 12.9825)" clip-path="url(#SVGID_2_)" fill="#D6E2F4" width="24.998" height="0.003"/>
			
				<rect x="386.568" y="293.925" transform="matrix(0.9995 -0.0322 0.0322 0.9995 -9.2548 12.9984)" clip-path="url(#SVGID_2_)" fill="#D4E1F4" width="24.998" height="0.004"/>
			<polygon clip-path="url(#SVGID_2_)" fill="#D4E1F4" points="386.575,294.331 411.56,293.527 411.56,296.156 386.575,296.156 			
				"/>
		</g>
	</g>
	<g>
		<path fill="#A4C2F7" d="M415.227,317.297h-10.073c-0.086,0-0.158-0.063-0.171-0.148l-3.151-20.793
			c-0.008-0.051,0.008-0.103,0.04-0.139c0.033-0.04,0.081-0.061,0.132-0.061h16.374c0.05,0,0.099,0.021,0.132,0.061
			c0.032,0.036,0.047,0.088,0.039,0.139l-3.15,20.793C415.385,317.235,415.312,317.297,415.227,317.297z"/>
	</g>
	<g>
		<path fill="#FFFFFF" d="M394.782,317.297h-10.073c-0.086,0-0.159-0.063-0.171-0.148l-3.15-20.793
			c-0.008-0.051,0.007-0.101,0.04-0.139c0.033-0.04,0.081-0.061,0.131-0.061h16.374c0.05,0,0.098,0.021,0.131,0.061
			c0.033,0.038,0.047,0.088,0.04,0.139l-3.151,20.793C394.94,317.235,394.868,317.297,394.782,317.297z"/>
	</g>
	<g>
		<path fill="#E3E7F2" d="M413.304,317.297h-26.608c-0.086,0-0.159-0.063-0.172-0.148l-3.15-20.793
			c-0.008-0.051,0.007-0.103,0.04-0.139c0.033-0.04,0.081-0.061,0.131-0.061h32.91c0.05,0,0.099,0.021,0.132,0.061
			c0.032,0.036,0.047,0.088,0.039,0.139l-3.149,20.793C413.463,317.235,413.39,317.297,413.304,317.297z"/>
	</g>
	<g>
		<g>
			<path fill="#428DFF" d="M415.227,317.938h-30.453c-0.402,0.001-0.745-0.293-0.804-0.691l-3.15-20.795
				c-0.036-0.234,0.033-0.475,0.188-0.653c0.155-0.18,0.38-0.283,0.618-0.283h36.753c0.237,0,0.464,0.104,0.617,0.284
				c0.155,0.18,0.223,0.42,0.187,0.654l-3.149,20.791C415.973,317.644,415.63,317.939,415.227,317.938L415.227,317.938z
				 M385.175,316.656h29.649l3.009-19.859h-35.667L385.175,316.656z M417.915,296.26l-0.001,0.002L417.915,296.26z"/>
		</g>
		<g>
			<path fill="#428DFF" d="M416.044,296.796h-32.032c-0.169,0-0.333-0.067-0.453-0.188c-0.12-0.119-0.187-0.283-0.187-0.452v-12.962
				c0-0.625,0.507-1.133,1.132-1.133h8.84c0.397,0,0.765,0.21,0.971,0.551l1.592,2.652h19.646c0.625,0.001,1.131,0.507,1.132,1.131
				v9.761c0,0.169-0.067,0.333-0.188,0.452C416.377,296.729,416.215,296.796,416.044,296.796z M384.653,295.515h30.751v-8.968
				h-19.582c-0.398-0.002-0.766-0.21-0.971-0.552l-1.592-2.652h-8.605V295.515z"/>
		</g>
		<g>
			<path fill="#428DFF" d="M413.481,296.796h-26.907c-0.169,0-0.333-0.067-0.453-0.188c-0.121-0.119-0.188-0.283-0.188-0.452v-4.485
				c0-0.17,0.067-0.333,0.188-0.453c0.12-0.12,0.283-0.188,0.453-0.188h26.907c0.171,0,0.333,0.068,0.453,0.188
				c0.121,0.12,0.188,0.283,0.188,0.453v4.485c0,0.169-0.067,0.333-0.188,0.452C413.814,296.729,413.652,296.796,413.481,296.796z
				 M387.216,295.515h25.626v-3.203h-25.626V295.515z"/>
		</g>
	</g>
</g>
</svg>
